<svg xmlns="http://www.w3.org/2000/svg" width="100pt" height="100pt" viewBox="0 0 100 100">
  <path d="M100 9.688c-3.75 1.562-7.5 2.812-11.875 3.124 4.375-2.5 7.5-6.562 9.063-11.25-4.063 2.5-8.438 4.063-13.126 5C80.626 2.5 75 0 69.376 0 58.125 0 48.75 9.063 48.75 20.625c0 1.563.313 3.125.625 4.688-17.188-.938-32.188-9.063-42.5-21.563C5 6.875 4.062 10.313 4.062 14.063c0 7.187 3.75 13.437 9.063 17.187-3.438 0-6.563-.938-9.375-2.5v.313c0 10 7.188 18.125 16.563 20-1.875.312-3.438.624-5.313.624-1.25 0-2.5 0-3.75-.312 2.5 8.125 10.313 14.063 19.063 14.375-6.875 5.625-15.938 8.75-25.625 8.75-1.563 0-3.438 0-5-.313 9.062 5.938 20 9.376 31.562 9.376 37.813 0 58.438-31.25 58.438-58.438v-2.5C93.75 17.5 97.188 13.75 100 9.687zm0 0" fill="red"/>
</svg>
